<svg width="582" height="15" viewBox="0 0 582 15" fill="none" xmlns="http://www.w3.org/2000/svg">
<path d="M0.676136 1.91193V0.818182H8.3125V1.91193H5.1108V11H3.87784V1.91193H0.676136ZM11.2296 6.40625V11H10.0563V0.818182H11.2296V4.55682H11.329C11.508 4.16241 11.7765 3.84919 12.1344 3.61719C12.4957 3.38187 12.9763 3.2642 13.5762 3.2642C14.0965 3.2642 14.5523 3.36861 14.9434 3.57741C15.3345 3.78291 15.6377 4.09943 15.8532 4.52699C16.0719 4.95123 16.1813 5.49148 16.1813 6.14773V11H15.008V6.22727C15.008 5.62074 14.8506 5.15175 14.5357 4.82031C14.2241 4.48556 13.7916 4.31818 13.2381 4.31818C12.8536 4.31818 12.5089 4.39938 12.204 4.56179C11.9024 4.72419 11.6638 4.96117 11.4881 5.27273C11.3158 5.58428 11.2296 5.96212 11.2296 6.40625ZM21.5295 11.1591C20.7937 11.1591 20.159 10.9967 19.6254 10.6719C19.0951 10.3438 18.6857 9.88636 18.3974 9.29972C18.1123 8.70975 17.9698 8.02367 17.9698 7.24148C17.9698 6.45928 18.1123 5.76989 18.3974 5.1733C18.6857 4.57339 19.0868 4.10606 19.6005 3.77131C20.1175 3.43324 20.7208 3.2642 21.4102 3.2642C21.8079 3.2642 22.2006 3.33049 22.5884 3.46307C22.9762 3.59564 23.3292 3.81108 23.6474 4.10938C23.9656 4.40436 24.2191 4.79545 24.408 5.28267C24.5969 5.76989 24.6914 6.36979 24.6914 7.08239V7.57955H18.805V6.56534H23.4982C23.4982 6.13447 23.4121 5.75 23.2397 5.41193C23.0707 5.07386 22.8287 4.80705 22.5138 4.61151C22.2023 4.41596 21.8344 4.31818 21.4102 4.31818C20.9428 4.31818 20.5385 4.43419 20.1971 4.66619C19.859 4.89489 19.5988 5.19318 19.4165 5.56108C19.2343 5.92898 19.1431 6.32339 19.1431 6.74432V7.42045C19.1431 7.99716 19.2425 8.48603 19.4414 8.88707C19.6436 9.2848 19.9237 9.58807 20.2816 9.79688C20.6396 10.0024 21.0555 10.1051 21.5295 10.1051C21.8377 10.1051 22.1161 10.062 22.3647 9.97585C22.6166 9.88636 22.8337 9.75379 23.016 9.57812C23.1983 9.39915 23.3391 9.17708 23.4386 8.91193L24.5721 9.23011C24.4528 9.61458 24.2522 9.95265 23.9705 10.2443C23.6888 10.5327 23.3408 10.758 22.9265 10.9205C22.5122 11.0795 22.0465 11.1591 21.5295 11.1591ZM26.4762 11V3.36364H27.6097V4.51705H27.6893C27.8285 4.1392 28.0804 3.83262 28.445 3.5973C28.8095 3.36198 29.2205 3.24432 29.6779 3.24432C29.7641 3.24432 29.8718 3.24597 30.0011 3.24929C30.1303 3.2526 30.2281 3.25758 30.2944 3.2642V4.45739C30.2546 4.44744 30.1635 4.43253 30.021 4.41264C29.8817 4.38944 29.7343 4.37784 29.5785 4.37784C29.2073 4.37784 28.8758 4.45573 28.5842 4.61151C28.2958 4.76397 28.0671 4.97609 27.8981 5.24787C27.7324 5.51634 27.6495 5.82292 27.6495 6.16761V11H26.4762ZM34.6545 11.1591C33.9187 11.1591 33.284 10.9967 32.7504 10.6719C32.2201 10.3438 31.8107 9.88636 31.5224 9.29972C31.2373 8.70975 31.0948 8.02367 31.0948 7.24148C31.0948 6.45928 31.2373 5.76989 31.5224 5.1733C31.8107 4.57339 32.2118 4.10606 32.7255 3.77131C33.2425 3.43324 33.8458 3.2642 34.5352 3.2642C34.9329 3.2642 35.3256 3.33049 35.7134 3.46307C36.1012 3.59564 36.4542 3.81108 36.7724 4.10938C37.0906 4.40436 37.3441 4.79545 37.533 5.28267C37.7219 5.76989 37.8164 6.36979 37.8164 7.08239V7.57955H31.93V6.56534H36.6232C36.6232 6.13447 36.5371 5.75 36.3647 5.41193C36.1957 5.07386 35.9537 4.80705 35.6388 4.61151C35.3273 4.41596 34.9594 4.31818 34.5352 4.31818C34.0678 4.31818 33.6635 4.43419 33.3221 4.66619C32.984 4.89489 32.7238 5.19318 32.5415 5.56108C32.3593 5.92898 32.2681 6.32339 32.2681 6.74432V7.42045C32.2681 7.99716 32.3675 8.48603 32.5664 8.88707C32.7686 9.2848 33.0487 9.58807 33.4066 9.79688C33.7646 10.0024 34.1805 10.1051 34.6545 10.1051C34.9627 10.1051 35.2411 10.062 35.4897 9.97585C35.7416 9.88636 35.9587 9.75379 36.141 9.57812C36.3233 9.39915 36.4641 9.17708 36.5636 8.91193L37.6971 9.23011C37.5778 9.61458 37.3772 9.95265 37.0955 10.2443C36.8138 10.5327 36.4658 10.758 36.0515 10.9205C35.6372 11.0795 35.1715 11.1591 34.6545 11.1591ZM40.6353 0.818182V1.71307C40.6353 1.98485 40.5856 2.27486 40.4862 2.5831C40.39 2.88802 40.2475 3.18466 40.0586 3.47301C39.873 3.75805 39.6476 4.00663 39.3825 4.21875L38.7461 3.7017C38.9549 3.40341 39.1355 3.09351 39.288 2.77202C39.4438 2.44721 39.5217 2.10085 39.5217 1.73295V0.818182H40.6353ZM46.5142 5.07386L45.4602 5.37216C45.3939 5.1965 45.2962 5.0258 45.1669 4.86009C45.041 4.69105 44.8686 4.55185 44.6499 4.44247C44.4311 4.3331 44.151 4.27841 43.8097 4.27841C43.3423 4.27841 42.9529 4.38613 42.6413 4.60156C42.3331 4.81368 42.179 5.08381 42.179 5.41193C42.179 5.7036 42.285 5.93395 42.4972 6.10298C42.7093 6.27202 43.0407 6.41288 43.4915 6.52557L44.625 6.80398C45.3078 6.9697 45.8165 7.22325 46.1513 7.56463C46.486 7.9027 46.6534 8.33854 46.6534 8.87216C46.6534 9.30966 46.5275 9.70076 46.2756 10.0455C46.027 10.3902 45.679 10.6619 45.2315 10.8608C44.7841 11.0597 44.2637 11.1591 43.6705 11.1591C42.8916 11.1591 42.2469 10.9901 41.7365 10.652C41.2261 10.3139 40.9029 9.82008 40.767 9.17045L41.8807 8.89205C41.9867 9.30303 42.1873 9.61127 42.4822 9.81676C42.7805 10.0223 43.17 10.125 43.6506 10.125C44.1974 10.125 44.6316 10.009 44.9531 9.77699C45.2779 9.54167 45.4403 9.25994 45.4403 8.93182C45.4403 8.66667 45.3475 8.4446 45.1619 8.26562C44.9763 8.08333 44.6913 7.94744 44.3068 7.85795L43.0341 7.55966C42.3348 7.39394 41.821 7.13707 41.4929 6.78906C41.1681 6.43774 41.0057 5.99858 41.0057 5.47159C41.0057 5.04072 41.1267 4.65956 41.3686 4.32812C41.6139 3.99669 41.947 3.73651 42.3679 3.54758C42.7921 3.35866 43.2727 3.2642 43.8097 3.2642C44.5653 3.2642 45.1586 3.42992 45.5895 3.76136C46.0237 4.0928 46.3319 4.5303 46.5142 5.07386ZM57.7662 5.07386L56.7122 5.37216C56.6459 5.1965 56.5481 5.0258 56.4189 4.86009C56.2929 4.69105 56.1206 4.55185 55.9018 4.44247C55.6831 4.3331 55.403 4.27841 55.0616 4.27841C54.5943 4.27841 54.2048 4.38613 53.8933 4.60156C53.585 4.81368 53.4309 5.08381 53.4309 5.41193C53.4309 5.7036 53.537 5.93395 53.7491 6.10298C53.9612 6.27202 54.2927 6.41288 54.7434 6.52557L55.877 6.80398C56.5597 6.9697 57.0685 7.22325 57.4032 7.56463C57.738 7.9027 57.9054 8.33854 57.9054 8.87216C57.9054 9.30966 57.7794 9.70076 57.5275 10.0455C57.2789 10.3902 56.9309 10.6619 56.4835 10.8608C56.036 11.0597 55.5157 11.1591 54.9224 11.1591C54.1435 11.1591 53.4989 10.9901 52.9885 10.652C52.478 10.3139 52.1549 9.82008 52.019 9.17045L53.1326 8.89205C53.2387 9.30303 53.4392 9.61127 53.7342 9.81676C54.0325 10.0223 54.4219 10.125 54.9025 10.125C55.4494 10.125 55.8836 10.009 56.2051 9.77699C56.5299 9.54167 56.6923 9.25994 56.6923 8.93182C56.6923 8.66667 56.5995 8.4446 56.4139 8.26562C56.2283 8.08333 55.9432 7.94744 55.5588 7.85795L54.286 7.55966C53.5867 7.39394 53.073 7.13707 52.7449 6.78906C52.42 6.43774 52.2576 5.99858 52.2576 5.47159C52.2576 5.04072 52.3786 4.65956 52.6206 4.32812C52.8658 3.99669 53.1989 3.73651 53.6199 3.54758C54.0441 3.35866 54.5247 3.2642 55.0616 3.2642C55.8173 3.2642 56.4106 3.42992 56.8414 3.76136C57.2756 4.0928 57.5839 4.5303 57.7662 5.07386ZM62.7738 11.1591C62.0844 11.1591 61.4795 10.995 60.9592 10.6669C60.4421 10.3388 60.0378 9.87973 59.7461 9.28977C59.4577 8.69981 59.3136 8.01042 59.3136 7.22159C59.3136 6.42614 59.4577 5.73177 59.7461 5.13849C60.0378 4.54522 60.4421 4.08452 60.9592 3.75639C61.4795 3.42827 62.0844 3.2642 62.7738 3.2642C63.4632 3.2642 64.0664 3.42827 64.5835 3.75639C65.1038 4.08452 65.5082 4.54522 65.7965 5.13849C66.0882 5.73177 66.234 6.42614 66.234 7.22159C66.234 8.01042 66.0882 8.69981 65.7965 9.28977C65.5082 9.87973 65.1038 10.3388 64.5835 10.6669C64.0664 10.995 63.4632 11.1591 62.7738 11.1591ZM62.7738 10.1051C63.2975 10.1051 63.7283 9.97088 64.0664 9.70241C64.4045 9.43395 64.6547 9.08097 64.8171 8.64347C64.9795 8.20597 65.0607 7.73201 65.0607 7.22159C65.0607 6.71117 64.9795 6.23556 64.8171 5.79474C64.6547 5.35393 64.4045 4.99763 64.0664 4.72585C63.7283 4.45407 63.2975 4.31818 62.7738 4.31818C62.2501 4.31818 61.8192 4.45407 61.4812 4.72585C61.1431 4.99763 60.8929 5.35393 60.7305 5.79474C60.5681 6.23556 60.4869 6.71117 60.4869 7.22159C60.4869 7.73201 60.5681 8.20597 60.7305 8.64347C60.8929 9.08097 61.1431 9.43395 61.4812 9.70241C61.8192 9.97088 62.2501 10.1051 62.7738 10.1051ZM71.9625 11V3.36364H73.0961V4.55682H73.1955C73.3546 4.14915 73.6114 3.83262 73.9661 3.60724C74.3207 3.37855 74.7466 3.2642 75.2438 3.2642C75.7476 3.2642 76.1668 3.37855 76.5016 3.60724C76.8397 3.83262 77.1032 4.14915 77.2921 4.55682H77.3716C77.5672 4.16241 77.8605 3.84919 78.2516 3.61719C78.6427 3.38187 79.1117 3.2642 79.6586 3.2642C80.3413 3.2642 80.8998 3.47798 81.334 3.90554C81.7682 4.32978 81.9853 4.991 81.9853 5.8892V11H80.812V5.8892C80.812 5.32576 80.6578 4.92306 80.3496 4.68111C80.0414 4.43916 79.6784 4.31818 79.2608 4.31818C78.7239 4.31818 78.3079 4.48059 78.013 4.8054C77.718 5.12689 77.5705 5.53456 77.5705 6.02841V11H76.3773V5.76989C76.3773 5.3357 76.2364 4.98603 75.9547 4.72088C75.673 4.45241 75.3101 4.31818 74.8659 4.31818C74.561 4.31818 74.276 4.39938 74.0108 4.56179C73.749 4.72419 73.5369 4.94957 73.3745 5.23793C73.2154 5.52296 73.1358 5.85275 73.1358 6.22727V11H71.9625ZM88.943 7.87784V3.36364H90.1163V11H88.943V9.70739H88.8635C88.6845 10.0952 88.4061 10.425 88.0282 10.6967C87.6504 10.9652 87.1731 11.0994 86.5964 11.0994C86.1191 11.0994 85.6949 10.995 85.3237 10.7862C84.9525 10.5741 84.6608 10.2559 84.4487 9.83168C84.2366 9.40412 84.1305 8.86553 84.1305 8.21591V3.36364H85.3038V8.13636C85.3038 8.69318 85.4596 9.13731 85.7711 9.46875C86.086 9.80019 86.487 9.96591 86.9743 9.96591C87.2659 9.96591 87.5626 9.89134 87.8642 9.74219C88.1691 9.59304 88.4243 9.36435 88.6298 9.05611C88.8386 8.74787 88.943 8.35511 88.943 7.87784ZM95.3675 11.1591C94.6516 11.1591 94.0352 10.9901 93.5181 10.652C93.0011 10.3139 92.6033 9.84825 92.3249 9.25497C92.0465 8.66169 91.9073 7.9839 91.9073 7.22159C91.9073 6.44602 92.0498 5.7616 92.3349 5.16832C92.6232 4.57173 93.0243 4.10606 93.538 3.77131C94.055 3.43324 94.6583 3.2642 95.3477 3.2642C95.8846 3.2642 96.3685 3.36364 96.7994 3.5625C97.2302 3.76136 97.5832 4.03977 97.8583 4.39773C98.1334 4.75568 98.3041 5.1733 98.3704 5.65057H97.1971C97.1076 5.30256 96.9087 4.99432 96.6005 4.72585C96.2956 4.45407 95.8846 4.31818 95.3675 4.31818C94.9102 4.31818 94.5091 4.4375 94.1644 4.67614C93.823 4.91146 93.5562 5.24455 93.364 5.67543C93.1751 6.10298 93.0806 6.60511 93.0806 7.18182C93.0806 7.77178 93.1734 8.28551 93.359 8.72301C93.5479 9.16051 93.8131 9.50024 94.1545 9.74219C94.4992 9.98414 94.9035 10.1051 95.3675 10.1051C95.6725 10.1051 95.9492 10.0521 96.1978 9.94602C96.4464 9.83996 96.6568 9.6875 96.8292 9.48864C97.0015 9.28977 97.1242 9.05114 97.1971 8.77273H98.3704C98.3041 9.22348 98.14 9.6295 97.8782 9.99077C97.6197 10.3487 97.2766 10.6338 96.8491 10.8459C96.4248 11.0547 95.931 11.1591 95.3675 11.1591ZM101.259 6.40625V11H100.086V0.818182H101.259V4.55682H101.358C101.537 4.16241 101.806 3.84919 102.164 3.61719C102.525 3.38187 103.006 3.2642 103.605 3.2642C104.126 3.2642 104.582 3.36861 104.973 3.57741C105.364 3.78291 105.667 4.09943 105.882 4.52699C106.101 4.95123 106.211 5.49148 106.211 6.14773V11H105.037V6.22727C105.037 5.62074 104.88 5.15175 104.565 4.82031C104.253 4.48556 103.821 4.31818 103.267 4.31818C102.883 4.31818 102.538 4.39938 102.233 4.56179C101.932 4.72419 101.693 4.96117 101.517 5.27273C101.345 5.58428 101.259 5.96212 101.259 6.40625ZM113.468 6.40625V11H112.295V3.36364H113.428V4.55682H113.528C113.706 4.16903 113.978 3.85748 114.343 3.62216C114.707 3.38352 115.178 3.2642 115.755 3.2642C116.272 3.2642 116.724 3.37027 117.112 3.58239C117.5 3.79119 117.801 4.10938 118.017 4.53693C118.232 4.96117 118.34 5.49811 118.34 6.14773V11H117.167V6.22727C117.167 5.62737 117.011 5.16004 116.699 4.82528C116.388 4.48722 115.96 4.31818 115.417 4.31818C115.042 4.31818 114.707 4.39938 114.412 4.56179C114.121 4.72419 113.89 4.96117 113.721 5.27273C113.552 5.58428 113.468 5.96212 113.468 6.40625ZM123.686 11.1591C122.95 11.1591 122.315 10.9967 121.782 10.6719C121.251 10.3438 120.842 9.88636 120.554 9.29972C120.269 8.70975 120.126 8.02367 120.126 7.24148C120.126 6.45928 120.269 5.76989 120.554 5.1733C120.842 4.57339 121.243 4.10606 121.757 3.77131C122.274 3.43324 122.877 3.2642 123.566 3.2642C123.964 3.2642 124.357 3.33049 124.745 3.46307C125.132 3.59564 125.485 3.81108 125.804 4.10938C126.122 4.40436 126.375 4.79545 126.564 5.28267C126.753 5.76989 126.848 6.36979 126.848 7.08239V7.57955H120.961V6.56534H125.654C125.654 6.13447 125.568 5.75 125.396 5.41193C125.227 5.07386 124.985 4.80705 124.67 4.61151C124.359 4.41596 123.991 4.31818 123.566 4.31818C123.099 4.31818 122.695 4.43419 122.353 4.66619C122.015 4.89489 121.755 5.19318 121.573 5.56108C121.391 5.92898 121.299 6.32339 121.299 6.74432V7.42045C121.299 7.99716 121.399 8.48603 121.598 8.88707C121.8 9.2848 122.08 9.58807 122.438 9.79688C122.796 10.0024 123.212 10.1051 123.686 10.1051C123.994 10.1051 124.272 10.062 124.521 9.97585C124.773 9.88636 124.99 9.75379 125.172 9.57812C125.355 9.39915 125.495 9.17708 125.595 8.91193L126.728 9.23011C126.609 9.61458 126.408 9.95265 126.127 10.2443C125.845 10.5327 125.497 10.758 125.083 10.9205C124.668 11.0795 124.203 11.1591 123.686 11.1591ZM130.363 11L128.036 3.36364H129.269L130.919 9.21023H130.999L132.63 3.36364H133.882L135.493 9.19034H135.573L137.223 3.36364H138.456L136.13 11H134.976L133.306 5.13352H133.186L131.516 11H130.363ZM147.266 3.36364V4.35795H143.309V3.36364H147.266ZM144.462 1.53409H145.635V8.8125C145.635 9.14394 145.683 9.39252 145.779 9.55824C145.879 9.72064 146.005 9.83002 146.157 9.88636C146.313 9.93939 146.477 9.96591 146.65 9.96591C146.779 9.96591 146.885 9.95928 146.968 9.94602C147.051 9.92945 147.117 9.91619 147.167 9.90625L147.405 10.9602C147.326 10.9901 147.215 11.0199 147.072 11.0497C146.93 11.0829 146.749 11.0994 146.53 11.0994C146.199 11.0994 145.874 11.0282 145.556 10.8857C145.241 10.7431 144.979 10.526 144.77 10.2344C144.565 9.94271 144.462 9.57481 144.462 9.13068V1.53409ZM152.051 11.1591C151.362 11.1591 150.757 10.995 150.237 10.6669C149.719 10.3388 149.315 9.87973 149.023 9.28977C148.735 8.69981 148.591 8.01042 148.591 7.22159C148.591 6.42614 148.735 5.73177 149.023 5.13849C149.315 4.54522 149.719 4.08452 150.237 3.75639C150.757 3.42827 151.362 3.2642 152.051 3.2642C152.741 3.2642 153.344 3.42827 153.861 3.75639C154.381 4.08452 154.786 4.54522 155.074 5.13849C155.366 5.73177 155.511 6.42614 155.511 7.22159C155.511 8.01042 155.366 8.69981 155.074 9.28977C154.786 9.87973 154.381 10.3388 153.861 10.6669C153.344 10.995 152.741 11.1591 152.051 11.1591ZM152.051 10.1051C152.575 10.1051 153.006 9.97088 153.344 9.70241C153.682 9.43395 153.932 9.08097 154.094 8.64347C154.257 8.20597 154.338 7.73201 154.338 7.22159C154.338 6.71117 154.257 6.23556 154.094 5.79474C153.932 5.35393 153.682 4.99763 153.344 4.72585C153.006 4.45407 152.575 4.31818 152.051 4.31818C151.527 4.31818 151.097 4.45407 150.759 4.72585C150.42 4.99763 150.17 5.35393 150.008 5.79474C149.845 6.23556 149.764 6.71117 149.764 7.22159C149.764 7.73201 149.845 8.20597 150.008 8.64347C150.17 9.08097 150.42 9.43395 150.759 9.70241C151.097 9.97088 151.527 10.1051 152.051 10.1051ZM164.442 11.1591C163.706 11.1591 163.071 10.9967 162.537 10.6719C162.007 10.3438 161.598 9.88636 161.309 9.29972C161.024 8.70975 160.882 8.02367 160.882 7.24148C160.882 6.45928 161.024 5.76989 161.309 5.1733C161.598 4.57339 161.999 4.10606 162.513 3.77131C163.03 3.43324 163.633 3.2642 164.322 3.2642C164.72 3.2642 165.113 3.33049 165.501 3.46307C165.888 3.59564 166.241 3.81108 166.559 4.10938C166.878 4.40436 167.131 4.79545 167.32 5.28267C167.509 5.76989 167.604 6.36979 167.604 7.08239V7.57955H161.717V6.56534H166.41C166.41 6.13447 166.324 5.75 166.152 5.41193C165.983 5.07386 165.741 4.80705 165.426 4.61151C165.114 4.41596 164.747 4.31818 164.322 4.31818C163.855 4.31818 163.451 4.43419 163.109 4.66619C162.771 4.89489 162.511 5.19318 162.329 5.56108C162.146 5.92898 162.055 6.32339 162.055 6.74432V7.42045C162.055 7.99716 162.155 8.48603 162.354 8.88707C162.556 9.2848 162.836 9.58807 163.194 9.79688C163.552 10.0024 163.968 10.1051 164.442 10.1051C164.75 10.1051 165.028 10.062 165.277 9.97585C165.529 9.88636 165.746 9.75379 165.928 9.57812C166.11 9.39915 166.251 9.17708 166.351 8.91193L167.484 9.23011C167.365 9.61458 167.164 9.95265 166.883 10.2443C166.601 10.5327 166.253 10.758 165.839 10.9205C165.424 11.0795 164.959 11.1591 164.442 11.1591ZM170.058 3.36364L171.888 6.4858L173.717 3.36364H175.07L172.604 7.18182L175.07 11H173.717L171.888 8.03693L170.058 11H168.706L171.132 7.18182L168.706 3.36364H170.058ZM176.744 13.8636V3.36364H177.877V4.5767H178.017C178.103 4.44413 178.222 4.27509 178.374 4.0696C178.53 3.8608 178.752 3.67519 179.041 3.51278C179.332 3.34706 179.727 3.2642 180.224 3.2642C180.867 3.2642 181.434 3.42495 181.924 3.74645C182.415 4.06794 182.798 4.52367 183.073 5.11364C183.348 5.7036 183.485 6.39962 183.485 7.2017C183.485 8.01042 183.348 8.71141 183.073 9.30469C182.798 9.89465 182.416 10.352 181.929 10.6768C181.442 10.9983 180.88 11.1591 180.244 11.1591C179.753 11.1591 179.36 11.0779 179.066 10.9155C178.771 10.7498 178.544 10.5625 178.384 10.3537C178.225 10.1416 178.103 9.96591 178.017 9.8267H177.917V13.8636H176.744ZM177.897 7.18182C177.897 7.75852 177.982 8.26728 178.151 8.7081C178.32 9.1456 178.567 9.48864 178.892 9.73722C179.216 9.98248 179.614 10.1051 180.085 10.1051C180.575 10.1051 180.985 9.97585 181.313 9.71733C181.644 9.45549 181.893 9.10417 182.058 8.66335C182.227 8.21922 182.312 7.72538 182.312 7.18182C182.312 6.64489 182.229 6.16098 182.063 5.73011C181.901 5.29593 181.654 4.95289 181.323 4.70099C180.994 4.44579 180.582 4.31818 180.085 4.31818C179.607 4.31818 179.206 4.43916 178.882 4.68111C178.557 4.91974 178.311 5.2545 178.146 5.68537C177.98 6.11293 177.897 6.61174 177.897 7.18182ZM186.448 0.818182V11H185.275V0.818182H186.448ZM191.7 11.1591C191.01 11.1591 190.405 10.995 189.885 10.6669C189.368 10.3388 188.964 9.87973 188.672 9.28977C188.384 8.69981 188.239 8.01042 188.239 7.22159C188.239 6.42614 188.384 5.73177 188.672 5.13849C188.964 4.54522 189.368 4.08452 189.885 3.75639C190.405 3.42827 191.01 3.2642 191.7 3.2642C192.389 3.2642 192.992 3.42827 193.509 3.75639C194.03 4.08452 194.434 4.54522 194.722 5.13849C195.014 5.73177 195.16 6.42614 195.16 7.22159C195.16 8.01042 195.014 8.69981 194.722 9.28977C194.434 9.87973 194.03 10.3388 193.509 10.6669C192.992 10.995 192.389 11.1591 191.7 11.1591ZM191.7 10.1051C192.223 10.1051 192.654 9.97088 192.992 9.70241C193.33 9.43395 193.58 9.08097 193.743 8.64347C193.905 8.20597 193.987 7.73201 193.987 7.22159C193.987 6.71117 193.905 6.23556 193.743 5.79474C193.58 5.35393 193.33 4.99763 192.992 4.72585C192.654 4.45407 192.223 4.31818 191.7 4.31818C191.176 4.31818 190.745 4.45407 190.407 4.72585C190.069 4.99763 189.819 5.35393 189.656 5.79474C189.494 6.23556 189.413 6.71117 189.413 7.22159C189.413 7.73201 189.494 8.20597 189.656 8.64347C189.819 9.08097 190.069 9.43395 190.407 9.70241C190.745 9.97088 191.176 10.1051 191.7 10.1051ZM196.951 11V3.36364H198.084V4.51705H198.164C198.303 4.1392 198.555 3.83262 198.92 3.5973C199.284 3.36198 199.695 3.24432 200.153 3.24432C200.239 3.24432 200.346 3.24597 200.476 3.24929C200.605 3.2526 200.703 3.25758 200.769 3.2642V4.45739C200.729 4.44744 200.638 4.43253 200.496 4.41264C200.356 4.38944 200.209 4.37784 200.053 4.37784C199.682 4.37784 199.35 4.45573 199.059 4.61151C198.77 4.76397 198.542 4.97609 198.373 5.24787C198.207 5.51634 198.124 5.82292 198.124 6.16761V11H196.951ZM205.129 11.1591C204.393 11.1591 203.759 10.9967 203.225 10.6719C202.695 10.3438 202.285 9.88636 201.997 9.29972C201.712 8.70975 201.569 8.02367 201.569 7.24148C201.569 6.45928 201.712 5.76989 201.997 5.1733C202.285 4.57339 202.686 4.10606 203.2 3.77131C203.717 3.43324 204.32 3.2642 205.01 3.2642C205.407 3.2642 205.8 3.33049 206.188 3.46307C206.576 3.59564 206.929 3.81108 207.247 4.10938C207.565 4.40436 207.819 4.79545 208.008 5.28267C208.197 5.76989 208.291 6.36979 208.291 7.08239V7.57955H202.405V6.56534H207.098C207.098 6.13447 207.012 5.75 206.839 5.41193C206.67 5.07386 206.428 4.80705 206.113 4.61151C205.802 4.41596 205.434 4.31818 205.01 4.31818C204.542 4.31818 204.138 4.43419 203.797 4.66619C203.459 4.89489 203.198 5.19318 203.016 5.56108C202.834 5.92898 202.743 6.32339 202.743 6.74432V7.42045C202.743 7.99716 202.842 8.48603 203.041 8.88707C203.243 9.2848 203.523 9.58807 203.881 9.79688C204.239 10.0024 204.655 10.1051 205.129 10.1051C205.437 10.1051 205.716 10.062 205.964 9.97585C206.216 9.88636 206.433 9.75379 206.616 9.57812C206.798 9.39915 206.939 9.17708 207.038 8.91193L208.172 9.23011C208.052 9.61458 207.852 9.95265 207.57 10.2443C207.288 10.5327 206.94 10.758 206.526 10.9205C206.112 11.0795 205.646 11.1591 205.129 11.1591ZM210.931 11.0795C210.686 11.0795 210.475 10.9917 210.3 10.8161C210.124 10.6404 210.036 10.4299 210.036 10.1847C210.036 9.93939 210.124 9.72893 210.3 9.55327C210.475 9.3776 210.686 9.28977 210.931 9.28977C211.176 9.28977 211.387 9.3776 211.562 9.55327C211.738 9.72893 211.826 9.93939 211.826 10.1847C211.826 10.3471 211.784 10.4962 211.702 10.6321C211.622 10.768 211.514 10.8774 211.378 10.9602C211.246 11.0398 211.097 11.0795 210.931 11.0795ZM226.221 4H224.988C224.915 3.64536 224.788 3.33381 224.605 3.06534C224.426 2.79688 224.208 2.5715 223.949 2.3892C223.694 2.2036 223.41 2.06439 223.099 1.97159C222.787 1.87879 222.463 1.83239 222.124 1.83239C221.508 1.83239 220.95 1.98816 220.449 2.29972C219.952 2.61127 219.556 3.07031 219.261 3.67685C218.969 4.28338 218.823 5.02746 218.823 5.90909C218.823 6.79072 218.969 7.5348 219.261 8.14134C219.556 8.74787 219.952 9.20691 220.449 9.51847C220.95 9.83002 221.508 9.9858 222.124 9.9858C222.463 9.9858 222.787 9.93939 223.099 9.84659C223.41 9.75379 223.694 9.61624 223.949 9.43395C224.208 9.24834 224.426 9.02131 224.605 8.75284C224.788 8.48106 224.915 8.16951 224.988 7.81818H226.221C226.128 8.33854 225.959 8.80421 225.714 9.2152C225.469 9.62618 225.164 9.97585 224.799 10.2642C224.435 10.5492 224.025 10.7663 223.571 10.9155C223.12 11.0646 222.638 11.1392 222.124 11.1392C221.256 11.1392 220.484 10.9271 219.808 10.5028C219.132 10.0786 218.6 9.47538 218.212 8.69318C217.824 7.91098 217.63 6.98295 217.63 5.90909C217.63 4.83523 217.824 3.9072 218.212 3.125C218.6 2.3428 219.132 1.73958 219.808 1.31534C220.484 0.891098 221.256 0.678977 222.124 0.678977C222.638 0.678977 223.12 0.753551 223.571 0.902699C224.025 1.05185 224.435 1.2706 224.799 1.55895C225.164 1.84399 225.469 2.192 225.714 2.60298C225.959 3.01065 226.128 3.47633 226.221 4ZM228.054 11V3.36364H229.188V4.51705H229.267C229.407 4.1392 229.658 3.83262 230.023 3.5973C230.388 3.36198 230.799 3.24432 231.256 3.24432C231.342 3.24432 231.45 3.24597 231.579 3.24929C231.708 3.2526 231.806 3.25758 231.873 3.2642V4.45739C231.833 4.44744 231.742 4.43253 231.599 4.41264C231.46 4.38944 231.312 4.37784 231.157 4.37784C230.785 4.37784 230.454 4.45573 230.162 4.61151C229.874 4.76397 229.645 4.97609 229.476 5.24787C229.31 5.51634 229.228 5.82292 229.228 6.16761V11H228.054ZM236.233 11.1591C235.497 11.1591 234.862 10.9967 234.328 10.6719C233.798 10.3438 233.389 9.88636 233.1 9.29972C232.815 8.70975 232.673 8.02367 232.673 7.24148C232.673 6.45928 232.815 5.76989 233.1 5.1733C233.389 4.57339 233.79 4.10606 234.304 3.77131C234.821 3.43324 235.424 3.2642 236.113 3.2642C236.511 3.2642 236.904 3.33049 237.292 3.46307C237.679 3.59564 238.032 3.81108 238.35 4.10938C238.669 4.40436 238.922 4.79545 239.111 5.28267C239.3 5.76989 239.395 6.36979 239.395 7.08239V7.57955H233.508V6.56534H238.201C238.201 6.13447 238.115 5.75 237.943 5.41193C237.774 5.07386 237.532 4.80705 237.217 4.61151C236.905 4.41596 236.538 4.31818 236.113 4.31818C235.646 4.31818 235.242 4.43419 234.9 4.66619C234.562 4.89489 234.302 5.19318 234.12 5.56108C233.937 5.92898 233.846 6.32339 233.846 6.74432V7.42045C233.846 7.99716 233.946 8.48603 234.145 8.88707C234.347 9.2848 234.627 9.58807 234.985 9.79688C235.343 10.0024 235.759 10.1051 236.233 10.1051C236.541 10.1051 236.819 10.062 237.068 9.97585C237.32 9.88636 237.537 9.75379 237.719 9.57812C237.901 9.39915 238.042 9.17708 238.142 8.91193L239.275 9.23011C239.156 9.61458 238.955 9.95265 238.674 10.2443C238.392 10.5327 238.044 10.758 237.63 10.9205C237.215 11.0795 236.75 11.1591 236.233 11.1591ZM243.426 11.179C242.943 11.179 242.503 11.0878 242.109 10.9055C241.715 10.7199 241.401 10.4531 241.169 10.1051C240.937 9.75379 240.821 9.32955 240.821 8.83239C240.821 8.39489 240.908 8.04025 241.08 7.76847C241.252 7.49337 241.483 7.27794 241.771 7.12216C242.059 6.96638 242.377 6.85038 242.725 6.77415C243.077 6.6946 243.43 6.63163 243.784 6.58523C244.248 6.52557 244.625 6.48082 244.913 6.45099C245.205 6.41785 245.417 6.36316 245.549 6.28693C245.685 6.2107 245.753 6.07812 245.753 5.8892V5.84943C245.753 5.3589 245.619 4.97775 245.35 4.70597C245.085 4.43419 244.683 4.2983 244.142 4.2983C243.582 4.2983 243.143 4.42093 242.825 4.66619C242.507 4.91146 242.283 5.1733 242.154 5.4517L241.04 5.05398C241.239 4.58996 241.504 4.22869 241.836 3.97017C242.17 3.70833 242.535 3.52604 242.929 3.4233C243.327 3.31723 243.718 3.2642 244.103 3.2642C244.348 3.2642 244.63 3.29403 244.948 3.35369C245.269 3.41004 245.579 3.5277 245.877 3.70668C246.179 3.88565 246.429 4.15578 246.628 4.51705C246.827 4.87831 246.926 5.36222 246.926 5.96875V11H245.753V9.96591H245.694C245.614 10.1316 245.481 10.3089 245.296 10.4979C245.11 10.6868 244.863 10.8475 244.555 10.9801C244.247 11.1127 243.871 11.179 243.426 11.179ZM243.605 10.125C244.069 10.125 244.461 10.0339 244.779 9.85156C245.1 9.66927 245.342 9.43395 245.505 9.1456C245.67 8.85724 245.753 8.55398 245.753 8.2358V7.16193C245.703 7.22159 245.594 7.27628 245.425 7.32599C245.259 7.3724 245.067 7.41383 244.848 7.45028C244.633 7.48343 244.422 7.51326 244.217 7.53977C244.015 7.56297 243.851 7.58286 243.725 7.59943C243.42 7.6392 243.135 7.70384 242.87 7.79332C242.608 7.8795 242.396 8.01042 242.233 8.18608C242.074 8.35843 241.995 8.59375 241.995 8.89205C241.995 9.29972 242.145 9.60795 242.447 9.81676C242.752 10.0223 243.138 10.125 243.605 10.125ZM252.389 3.36364V4.35795H248.432V3.36364H252.389ZM249.585 1.53409H250.758V8.8125C250.758 9.14394 250.806 9.39252 250.903 9.55824C251.002 9.72064 251.128 9.83002 251.28 9.88636C251.436 9.93939 251.6 9.96591 251.773 9.96591C251.902 9.96591 252.008 9.95928 252.091 9.94602C252.174 9.92945 252.24 9.91619 252.29 9.90625L252.528 10.9602C252.449 10.9901 252.338 11.0199 252.195 11.0497C252.053 11.0829 251.872 11.0994 251.653 11.0994C251.322 11.0994 250.997 11.0282 250.679 10.8857C250.364 10.7431 250.102 10.526 249.893 10.2344C249.688 9.94271 249.585 9.57481 249.585 9.13068V1.53409ZM257.274 11.1591C256.538 11.1591 255.903 10.9967 255.369 10.6719C254.839 10.3438 254.43 9.88636 254.142 9.29972C253.856 8.70975 253.714 8.02367 253.714 7.24148C253.714 6.45928 253.856 5.76989 254.142 5.1733C254.43 4.57339 254.831 4.10606 255.345 3.77131C255.862 3.43324 256.465 3.2642 257.154 3.2642C257.552 3.2642 257.945 3.33049 258.333 3.46307C258.72 3.59564 259.073 3.81108 259.392 4.10938C259.71 4.40436 259.963 4.79545 260.152 5.28267C260.341 5.76989 260.436 6.36979 260.436 7.08239V7.57955H254.549V6.56534H259.242C259.242 6.13447 259.156 5.75 258.984 5.41193C258.815 5.07386 258.573 4.80705 258.258 4.61151C257.946 4.41596 257.579 4.31818 257.154 4.31818C256.687 4.31818 256.283 4.43419 255.941 4.66619C255.603 4.89489 255.343 5.19318 255.161 5.56108C254.978 5.92898 254.887 6.32339 254.887 6.74432V7.42045C254.887 7.99716 254.987 8.48603 255.186 8.88707C255.388 9.2848 255.668 9.58807 256.026 9.79688C256.384 10.0024 256.8 10.1051 257.274 10.1051C257.582 10.1051 257.86 10.062 258.109 9.97585C258.361 9.88636 258.578 9.75379 258.76 9.57812C258.942 9.39915 259.083 9.17708 259.183 8.91193L260.316 9.23011C260.197 9.61458 259.996 9.95265 259.715 10.2443C259.433 10.5327 259.085 10.758 258.671 10.9205C258.256 11.0795 257.791 11.1591 257.274 11.1591ZM268.405 11.179C267.921 11.179 267.482 11.0878 267.088 10.9055C266.693 10.7199 266.38 10.4531 266.148 10.1051C265.916 9.75379 265.8 9.32955 265.8 8.83239C265.8 8.39489 265.886 8.04025 266.058 7.76847C266.231 7.49337 266.461 7.27794 266.749 7.12216C267.038 6.96638 267.356 6.85038 267.704 6.77415C268.055 6.6946 268.408 6.63163 268.763 6.58523C269.227 6.52557 269.603 6.48082 269.892 6.45099C270.183 6.41785 270.395 6.36316 270.528 6.28693C270.664 6.2107 270.732 6.07812 270.732 5.8892V5.84943C270.732 5.3589 270.597 4.97775 270.329 4.70597C270.064 4.43419 269.661 4.2983 269.121 4.2983C268.561 4.2983 268.122 4.42093 267.803 4.66619C267.485 4.91146 267.262 5.1733 267.132 5.4517L266.019 5.05398C266.218 4.58996 266.483 4.22869 266.814 3.97017C267.149 3.70833 267.513 3.52604 267.908 3.4233C268.306 3.31723 268.697 3.2642 269.081 3.2642C269.326 3.2642 269.608 3.29403 269.926 3.35369C270.248 3.41004 270.558 3.5277 270.856 3.70668C271.158 3.88565 271.408 4.15578 271.607 4.51705C271.806 4.87831 271.905 5.36222 271.905 5.96875V11H270.732V9.96591H270.672C270.593 10.1316 270.46 10.3089 270.274 10.4979C270.089 10.6868 269.842 10.8475 269.534 10.9801C269.225 11.1127 268.849 11.179 268.405 11.179ZM268.584 10.125C269.048 10.125 269.439 10.0339 269.757 9.85156C270.079 9.66927 270.321 9.43395 270.483 9.1456C270.649 8.85724 270.732 8.55398 270.732 8.2358V7.16193C270.682 7.22159 270.573 7.27628 270.404 7.32599C270.238 7.3724 270.046 7.41383 269.827 7.45028C269.611 7.48343 269.401 7.51326 269.195 7.53977C268.993 7.56297 268.829 7.58286 268.703 7.59943C268.398 7.6392 268.113 7.70384 267.848 7.79332C267.586 7.8795 267.374 8.01042 267.212 8.18608C267.053 8.35843 266.973 8.59375 266.973 8.89205C266.973 9.29972 267.124 9.60795 267.426 9.81676C267.731 10.0223 268.117 10.125 268.584 10.125ZM279.157 6.40625V11H277.984V3.36364H279.118V4.55682H279.217C279.396 4.16903 279.668 3.85748 280.032 3.62216C280.397 3.38352 280.868 3.2642 281.444 3.2642C281.961 3.2642 282.414 3.37027 282.801 3.58239C283.189 3.79119 283.491 4.10938 283.706 4.53693C283.922 4.96117 284.029 5.49811 284.029 6.14773V11H282.856V6.22727C282.856 5.62737 282.7 5.16004 282.389 4.82528C282.077 4.48722 281.65 4.31818 281.106 4.31818C280.732 4.31818 280.397 4.39938 280.102 4.56179C279.81 4.72419 279.58 4.96117 279.411 5.27273C279.242 5.58428 279.157 5.96212 279.157 6.40625ZM289.375 11.1591C288.639 11.1591 288.005 10.9967 287.471 10.6719C286.941 10.3438 286.531 9.88636 286.243 9.29972C285.958 8.70975 285.816 8.02367 285.816 7.24148C285.816 6.45928 285.958 5.76989 286.243 5.1733C286.531 4.57339 286.932 4.10606 287.446 3.77131C287.963 3.43324 288.566 3.2642 289.256 3.2642C289.654 3.2642 290.046 3.33049 290.434 3.46307C290.822 3.59564 291.175 3.81108 291.493 4.10938C291.811 4.40436 292.065 4.79545 292.254 5.28267C292.443 5.76989 292.537 6.36979 292.537 7.08239V7.57955H286.651V6.56534H291.344C291.344 6.13447 291.258 5.75 291.085 5.41193C290.916 5.07386 290.674 4.80705 290.36 4.61151C290.048 4.41596 289.68 4.31818 289.256 4.31818C288.789 4.31818 288.384 4.43419 288.043 4.66619C287.705 4.89489 287.445 5.19318 287.262 5.56108C287.08 5.92898 286.989 6.32339 286.989 6.74432V7.42045C286.989 7.99716 287.088 8.48603 287.287 8.88707C287.489 9.2848 287.769 9.58807 288.127 9.79688C288.485 10.0024 288.901 10.1051 289.375 10.1051C289.683 10.1051 289.962 10.062 290.21 9.97585C290.462 9.88636 290.679 9.75379 290.862 9.57812C291.044 9.39915 291.185 9.17708 291.284 8.91193L292.418 9.23011C292.298 9.61458 292.098 9.95265 291.816 10.2443C291.535 10.5327 291.186 10.758 290.772 10.9205C290.358 11.0795 289.892 11.1591 289.375 11.1591ZM296.052 11L293.725 3.36364H294.958L296.609 9.21023H296.688L298.319 3.36364H299.572L301.183 9.19034H301.262L302.913 3.36364H304.146L301.819 11H300.666L298.995 5.13352H298.876L297.205 11H296.052ZM309.634 13.8636V3.36364H310.768V4.5767H310.907C310.993 4.44413 311.113 4.27509 311.265 4.0696C311.421 3.8608 311.643 3.67519 311.931 3.51278C312.223 3.34706 312.617 3.2642 313.115 3.2642C313.758 3.2642 314.324 3.42495 314.815 3.74645C315.305 4.06794 315.688 4.52367 315.963 5.11364C316.238 5.7036 316.376 6.39962 316.376 7.2017C316.376 8.01042 316.238 8.71141 315.963 9.30469C315.688 9.89465 315.307 10.352 314.82 10.6768C314.333 10.9983 313.771 11.1591 313.134 11.1591C312.644 11.1591 312.251 11.0779 311.956 10.9155C311.661 10.7498 311.434 10.5625 311.275 10.3537C311.116 10.1416 310.993 9.96591 310.907 9.8267H310.808V13.8636H309.634ZM310.788 7.18182C310.788 7.75852 310.872 8.26728 311.041 8.7081C311.21 9.1456 311.457 9.48864 311.782 9.73722C312.107 9.98248 312.505 10.1051 312.975 10.1051C313.466 10.1051 313.875 9.97585 314.203 9.71733C314.535 9.45549 314.783 9.10417 314.949 8.66335C315.118 8.21922 315.203 7.72538 315.203 7.18182C315.203 6.64489 315.12 6.16098 314.954 5.73011C314.792 5.29593 314.545 4.95289 314.213 4.70099C313.885 4.44579 313.472 4.31818 312.975 4.31818C312.498 4.31818 312.097 4.43916 311.772 4.68111C311.447 4.91974 311.202 5.2545 311.036 5.68537C310.871 6.11293 310.788 6.61174 310.788 7.18182ZM318.166 11V3.36364H319.299V4.51705H319.379C319.518 4.1392 319.77 3.83262 320.134 3.5973C320.499 3.36198 320.91 3.24432 321.367 3.24432C321.454 3.24432 321.561 3.24597 321.691 3.24929C321.82 3.2526 321.918 3.25758 321.984 3.2642V4.45739C321.944 4.44744 321.853 4.43253 321.71 4.41264C321.571 4.38944 321.424 4.37784 321.268 4.37784C320.897 4.37784 320.565 4.45573 320.274 4.61151C319.985 4.76397 319.757 4.97609 319.588 5.24787C319.422 5.51634 319.339 5.82292 319.339 6.16761V11H318.166ZM326.244 11.1591C325.555 11.1591 324.95 10.995 324.43 10.6669C323.913 10.3388 323.508 9.87973 323.217 9.28977C322.928 8.69981 322.784 8.01042 322.784 7.22159C322.784 6.42614 322.928 5.73177 323.217 5.13849C323.508 4.54522 323.913 4.08452 324.43 3.75639C324.95 3.42827 325.555 3.2642 326.244 3.2642C326.934 3.2642 327.537 3.42827 328.054 3.75639C328.575 4.08452 328.979 4.54522 329.267 5.13849C329.559 5.73177 329.705 6.42614 329.705 7.22159C329.705 8.01042 329.559 8.69981 329.267 9.28977C328.979 9.87973 328.575 10.3388 328.054 10.6669C327.537 10.995 326.934 11.1591 326.244 11.1591ZM326.244 10.1051C326.768 10.1051 327.199 9.97088 327.537 9.70241C327.875 9.43395 328.125 9.08097 328.288 8.64347C328.45 8.20597 328.531 7.73201 328.531 7.22159C328.531 6.71117 328.45 6.23556 328.288 5.79474C328.125 5.35393 327.875 4.99763 327.537 4.72585C327.199 4.45407 326.768 4.31818 326.244 4.31818C325.721 4.31818 325.29 4.45407 324.952 4.72585C324.614 4.99763 324.364 5.35393 324.201 5.79474C324.039 6.23556 323.958 6.71117 323.958 7.22159C323.958 7.73201 324.039 8.20597 324.201 8.64347C324.364 9.08097 324.614 9.43395 324.952 9.70241C325.29 9.97088 325.721 10.1051 326.244 10.1051ZM331.496 3.36364H332.669V11.5568C332.669 12.0275 332.588 12.4351 332.425 12.7798C332.266 13.1245 332.024 13.3913 331.7 13.5803C331.378 13.7692 330.972 13.8636 330.482 13.8636C330.442 13.8636 330.402 13.8636 330.362 13.8636C330.322 13.8636 330.283 13.8636 330.243 13.8636V12.7699C330.283 12.7699 330.319 12.7699 330.352 12.7699C330.385 12.7699 330.422 12.7699 330.462 12.7699C330.82 12.7699 331.081 12.6638 331.247 12.4517C331.413 12.2429 331.496 11.9446 331.496 11.5568V3.36364ZM332.072 2.09091C331.844 2.09091 331.647 2.01302 331.481 1.85724C331.318 1.70147 331.237 1.5142 331.237 1.29545C331.237 1.0767 331.318 0.889441 331.481 0.733664C331.647 0.577888 331.844 0.5 332.072 0.5C332.301 0.5 332.497 0.577888 332.659 0.733664C332.825 0.889441 332.908 1.0767 332.908 1.29545C332.908 1.5142 332.825 1.70147 332.659 1.85724C332.497 2.01302 332.301 2.09091 332.072 2.09091ZM338.02 11.1591C337.284 11.1591 336.649 10.9967 336.116 10.6719C335.585 10.3438 335.176 9.88636 334.888 9.29972C334.603 8.70975 334.46 8.02367 334.46 7.24148C334.46 6.45928 334.603 5.76989 334.888 5.1733C335.176 4.57339 335.577 4.10606 336.091 3.77131C336.608 3.43324 337.211 3.2642 337.9 3.2642C338.298 3.2642 338.691 3.33049 339.079 3.46307C339.466 3.59564 339.819 3.81108 340.138 4.10938C340.456 4.40436 340.709 4.79545 340.898 5.28267C341.087 5.76989 341.182 6.36979 341.182 7.08239V7.57955H335.295V6.56534H339.988C339.988 6.13447 339.902 5.75 339.73 5.41193C339.561 5.07386 339.319 4.80705 339.004 4.61151C338.693 4.41596 338.325 4.31818 337.9 4.31818C337.433 4.31818 337.029 4.43419 336.687 4.66619C336.349 4.89489 336.089 5.19318 335.907 5.56108C335.724 5.92898 335.633 6.32339 335.633 6.74432V7.42045C335.633 7.99716 335.733 8.48603 335.932 8.88707C336.134 9.2848 336.414 9.58807 336.772 9.79688C337.13 10.0024 337.546 10.1051 338.02 10.1051C338.328 10.1051 338.606 10.062 338.855 9.97585C339.107 9.88636 339.324 9.75379 339.506 9.57812C339.689 9.39915 339.829 9.17708 339.929 8.91193L341.062 9.23011C340.943 9.61458 340.742 9.95265 340.461 10.2443C340.179 10.5327 339.831 10.758 339.417 10.9205C339.002 11.0795 338.537 11.1591 338.02 11.1591ZM346.069 11.1591C345.353 11.1591 344.736 10.9901 344.219 10.652C343.702 10.3139 343.305 9.84825 343.026 9.25497C342.748 8.66169 342.608 7.9839 342.608 7.22159C342.608 6.44602 342.751 5.7616 343.036 5.16832C343.324 4.57173 343.725 4.10606 344.239 3.77131C344.756 3.43324 345.359 3.2642 346.049 3.2642C346.586 3.2642 347.07 3.36364 347.501 3.5625C347.931 3.76136 348.284 4.03977 348.559 4.39773C348.835 4.75568 349.005 5.1733 349.072 5.65057H347.898C347.809 5.30256 347.61 4.99432 347.302 4.72585C346.997 4.45407 346.586 4.31818 346.069 4.31818C345.611 4.31818 345.21 4.4375 344.866 4.67614C344.524 4.91146 344.257 5.24455 344.065 5.67543C343.876 6.10298 343.782 6.60511 343.782 7.18182C343.782 7.77178 343.875 8.28551 344.06 8.72301C344.249 9.16051 344.514 9.50024 344.856 9.74219C345.2 9.98414 345.605 10.1051 346.069 10.1051C346.374 10.1051 346.65 10.0521 346.899 9.94602C347.148 9.83996 347.358 9.6875 347.53 9.48864C347.703 9.28977 347.825 9.05114 347.898 8.77273H349.072C349.005 9.22348 348.841 9.6295 348.579 9.99077C348.321 10.3487 347.978 10.6338 347.55 10.8459C347.126 11.0547 346.632 11.1591 346.069 11.1591ZM354.108 3.36364V4.35795H350.15V3.36364H354.108ZM351.304 1.53409H352.477V8.8125C352.477 9.14394 352.525 9.39252 352.621 9.55824C352.721 9.72064 352.847 9.83002 352.999 9.88636C353.155 9.93939 353.319 9.96591 353.491 9.96591C353.621 9.96591 353.727 9.95928 353.809 9.94602C353.892 9.92945 353.959 9.91619 354.008 9.90625L354.247 10.9602C354.167 10.9901 354.056 11.0199 353.914 11.0497C353.771 11.0829 353.591 11.0994 353.372 11.0994C353.041 11.0994 352.716 11.0282 352.398 10.8857C352.083 10.7431 351.821 10.526 351.612 10.2344C351.407 9.94271 351.304 9.57481 351.304 9.13068V1.53409ZM363.211 3.36364V4.35795H359.094V3.36364H363.211ZM360.327 11V2.30966C360.327 1.87216 360.43 1.50758 360.635 1.21591C360.841 0.924242 361.108 0.705492 361.436 0.559658C361.764 0.413825 362.11 0.340908 362.475 0.340908C362.763 0.340908 362.999 0.364109 363.181 0.410511C363.363 0.456912 363.499 0.499999 363.589 0.539772L363.251 1.55398C363.191 1.53409 363.108 1.50923 363.002 1.4794C362.899 1.44957 362.763 1.43466 362.594 1.43466C362.206 1.43466 361.926 1.53243 361.754 1.72798C361.585 1.92353 361.501 2.21023 361.501 2.58807V11H360.327ZM364.855 11V3.36364H365.989V4.51705H366.068C366.207 4.1392 366.459 3.83262 366.824 3.5973C367.188 3.36198 367.599 3.24432 368.057 3.24432C368.143 3.24432 368.251 3.24597 368.38 3.24929C368.509 3.2526 368.607 3.25758 368.673 3.2642V4.45739C368.634 4.44744 368.542 4.43253 368.4 4.41264C368.261 4.38944 368.113 4.37784 367.957 4.37784C367.586 4.37784 367.255 4.45573 366.963 4.61151C366.675 4.76397 366.446 4.97609 366.277 5.24787C366.111 5.51634 366.028 5.82292 366.028 6.16761V11H364.855ZM372.934 11.1591C372.245 11.1591 371.64 10.995 371.119 10.6669C370.602 10.3388 370.198 9.87973 369.906 9.28977C369.618 8.69981 369.474 8.01042 369.474 7.22159C369.474 6.42614 369.618 5.73177 369.906 5.13849C370.198 4.54522 370.602 4.08452 371.119 3.75639C371.64 3.42827 372.245 3.2642 372.934 3.2642C373.623 3.2642 374.227 3.42827 374.744 3.75639C375.264 4.08452 375.668 4.54522 375.957 5.13849C376.248 5.73177 376.394 6.42614 376.394 7.22159C376.394 8.01042 376.248 8.69981 375.957 9.28977C375.668 9.87973 375.264 10.3388 374.744 10.6669C374.227 10.995 373.623 11.1591 372.934 11.1591ZM372.934 10.1051C373.458 10.1051 373.888 9.97088 374.227 9.70241C374.565 9.43395 374.815 9.08097 374.977 8.64347C375.14 8.20597 375.221 7.73201 375.221 7.22159C375.221 6.71117 375.14 6.23556 374.977 5.79474C374.815 5.35393 374.565 4.99763 374.227 4.72585C373.888 4.45407 373.458 4.31818 372.934 4.31818C372.41 4.31818 371.979 4.45407 371.641 4.72585C371.303 4.99763 371.053 5.35393 370.891 5.79474C370.728 6.23556 370.647 6.71117 370.647 7.22159C370.647 7.73201 370.728 8.20597 370.891 8.64347C371.053 9.08097 371.303 9.43395 371.641 9.70241C371.979 9.97088 372.41 10.1051 372.934 10.1051ZM378.185 11V3.36364H379.319V4.55682H379.418C379.577 4.14915 379.834 3.83262 380.189 3.60724C380.543 3.37855 380.969 3.2642 381.466 3.2642C381.97 3.2642 382.39 3.37855 382.724 3.60724C383.062 3.83262 383.326 4.14915 383.515 4.55682H383.594C383.79 4.16241 384.083 3.84919 384.474 3.61719C384.865 3.38187 385.334 3.2642 385.881 3.2642C386.564 3.2642 387.122 3.47798 387.557 3.90554C387.991 4.32978 388.208 4.991 388.208 5.8892V11H387.035V5.8892C387.035 5.32576 386.881 4.92306 386.572 4.68111C386.264 4.43916 385.901 4.31818 385.483 4.31818C384.947 4.31818 384.531 4.48059 384.236 4.8054C383.941 5.12689 383.793 5.53456 383.793 6.02841V11H382.6V5.76989C382.6 5.3357 382.459 4.98603 382.177 4.72088C381.896 4.45241 381.533 4.31818 381.089 4.31818C380.784 4.31818 380.499 4.39938 380.233 4.56179C379.972 4.72419 379.76 4.94957 379.597 5.23793C379.438 5.52296 379.358 5.85275 379.358 6.22727V11H378.185ZM397.393 11.1591C396.704 11.1591 396.099 10.995 395.578 10.6669C395.061 10.3388 394.657 9.87973 394.365 9.28977C394.077 8.69981 393.933 8.01042 393.933 7.22159C393.933 6.42614 394.077 5.73177 394.365 5.13849C394.657 4.54522 395.061 4.08452 395.578 3.75639C396.099 3.42827 396.704 3.2642 397.393 3.2642C398.082 3.2642 398.686 3.42827 399.203 3.75639C399.723 4.08452 400.127 4.54522 400.416 5.13849C400.707 5.73177 400.853 6.42614 400.853 7.22159C400.853 8.01042 400.707 8.69981 400.416 9.28977C400.127 9.87973 399.723 10.3388 399.203 10.6669C398.686 10.995 398.082 11.1591 397.393 11.1591ZM397.393 10.1051C397.917 10.1051 398.347 9.97088 398.686 9.70241C399.024 9.43395 399.274 9.08097 399.436 8.64347C399.599 8.20597 399.68 7.73201 399.68 7.22159C399.68 6.71117 399.599 6.23556 399.436 5.79474C399.274 5.35393 399.024 4.99763 398.686 4.72585C398.347 4.45407 397.917 4.31818 397.393 4.31818C396.869 4.31818 396.438 4.45407 396.1 4.72585C395.762 4.99763 395.512 5.35393 395.35 5.79474C395.187 6.23556 395.106 6.71117 395.106 7.22159C395.106 7.73201 395.187 8.20597 395.35 8.64347C395.512 9.08097 395.762 9.43395 396.1 9.70241C396.438 9.97088 396.869 10.1051 397.393 10.1051ZM407.457 7.87784V3.36364H408.63V11H407.457V9.70739H407.377C407.198 10.0952 406.92 10.425 406.542 10.6967C406.164 10.9652 405.687 11.0994 405.11 11.0994C404.633 11.0994 404.209 10.995 403.837 10.7862C403.466 10.5741 403.174 10.2559 402.962 9.83168C402.75 9.40412 402.644 8.86553 402.644 8.21591V3.36364H403.817V8.13636C403.817 8.69318 403.973 9.13731 404.285 9.46875C404.6 9.80019 405.001 9.96591 405.488 9.96591C405.78 9.96591 406.076 9.89134 406.378 9.74219C406.683 9.59304 406.938 9.36435 407.143 9.05611C407.352 8.74787 407.457 8.35511 407.457 7.87784ZM410.779 11V3.36364H411.912V4.51705H411.992C412.131 4.1392 412.383 3.83262 412.748 3.5973C413.112 3.36198 413.523 3.24432 413.981 3.24432C414.067 3.24432 414.175 3.24597 414.304 3.24929C414.433 3.2526 414.531 3.25758 414.597 3.2642V4.45739C414.557 4.44744 414.466 4.43253 414.324 4.41264C414.184 4.38944 414.037 4.37784 413.881 4.37784C413.51 4.37784 413.179 4.45573 412.887 4.61151C412.599 4.76397 412.37 4.97609 412.201 5.24787C412.035 5.51634 411.952 5.82292 411.952 6.16761V11H410.779ZM423.246 3.36364V4.35795H419.289V3.36364H423.246ZM420.442 1.53409H421.616V8.8125C421.616 9.14394 421.664 9.39252 421.76 9.55824C421.859 9.72064 421.985 9.83002 422.138 9.88636C422.294 9.93939 422.458 9.96591 422.63 9.96591C422.759 9.96591 422.865 9.95928 422.948 9.94602C423.031 9.92945 423.097 9.91619 423.147 9.90625L423.386 10.9602C423.306 10.9901 423.195 11.0199 423.053 11.0497C422.91 11.0829 422.729 11.0994 422.511 11.0994C422.179 11.0994 421.854 11.0282 421.536 10.8857C421.221 10.7431 420.96 10.526 420.751 10.2344C420.545 9.94271 420.442 9.57481 420.442 9.13068V1.53409ZM428.131 11.1591C427.395 11.1591 426.761 10.9967 426.227 10.6719C425.697 10.3438 425.287 9.88636 424.999 9.29972C424.714 8.70975 424.571 8.02367 424.571 7.24148C424.571 6.45928 424.714 5.76989 424.999 5.1733C425.287 4.57339 425.688 4.10606 426.202 3.77131C426.719 3.43324 427.322 3.2642 428.012 3.2642C428.409 3.2642 428.802 3.33049 429.19 3.46307C429.578 3.59564 429.931 3.81108 430.249 4.10938C430.567 4.40436 430.821 4.79545 431.01 5.28267C431.199 5.76989 431.293 6.36979 431.293 7.08239V7.57955H425.407V6.56534H430.1C430.1 6.13447 430.014 5.75 429.841 5.41193C429.672 5.07386 429.43 4.80705 429.115 4.61151C428.804 4.41596 428.436 4.31818 428.012 4.31818C427.544 4.31818 427.14 4.43419 426.799 4.66619C426.461 4.89489 426.2 5.19318 426.018 5.56108C425.836 5.92898 425.745 6.32339 425.745 6.74432V7.42045C425.745 7.99716 425.844 8.48603 426.043 8.88707C426.245 9.2848 426.525 9.58807 426.883 9.79688C427.241 10.0024 427.657 10.1051 428.131 10.1051C428.439 10.1051 428.718 10.062 428.966 9.97585C429.218 9.88636 429.435 9.75379 429.618 9.57812C429.8 9.39915 429.941 9.17708 430.04 8.91193L431.174 9.23011C431.054 9.61458 430.854 9.95265 430.572 10.2443C430.29 10.5327 429.942 10.758 429.528 10.9205C429.114 11.0795 428.648 11.1591 428.131 11.1591ZM433.078 11V3.36364H434.211V4.55682H434.311C434.47 4.14915 434.727 3.83262 435.081 3.60724C435.436 3.37855 435.862 3.2642 436.359 3.2642C436.863 3.2642 437.282 3.37855 437.617 3.60724C437.955 3.83262 438.218 4.14915 438.407 4.55682H438.487C438.682 4.16241 438.976 3.84919 439.367 3.61719C439.758 3.38187 440.227 3.2642 440.774 3.2642C441.457 3.2642 442.015 3.47798 442.449 3.90554C442.883 4.32978 443.1 4.991 443.1 5.8892V11H441.927V5.8892C441.927 5.32576 441.773 4.92306 441.465 4.68111C441.157 4.43916 440.794 4.31818 440.376 4.31818C439.839 4.31818 439.423 4.48059 439.128 4.8054C438.833 5.12689 438.686 5.53456 438.686 6.02841V11H437.493V5.76989C437.493 5.3357 437.352 4.98603 437.07 4.72088C436.788 4.45241 436.425 4.31818 435.981 4.31818C435.676 4.31818 435.391 4.39938 435.126 4.56179C434.864 4.72419 434.652 4.94957 434.49 5.23793C434.331 5.52296 434.251 5.85275 434.251 6.22727V11H433.078ZM445.246 13.8636V3.36364H446.379V4.5767H446.518C446.605 4.44413 446.724 4.27509 446.876 4.0696C447.032 3.8608 447.254 3.67519 447.543 3.51278C447.834 3.34706 448.229 3.2642 448.726 3.2642C449.369 3.2642 449.936 3.42495 450.426 3.74645C450.917 4.06794 451.299 4.52367 451.575 5.11364C451.85 5.7036 451.987 6.39962 451.987 7.2017C451.987 8.01042 451.85 8.71141 451.575 9.30469C451.299 9.89465 450.918 10.352 450.431 10.6768C449.944 10.9983 449.382 11.1591 448.746 11.1591C448.255 11.1591 447.862 11.0779 447.567 10.9155C447.272 10.7498 447.045 10.5625 446.886 10.3537C446.727 10.1416 446.605 9.96591 446.518 9.8267H446.419V13.8636H445.246ZM446.399 7.18182C446.399 7.75852 446.484 8.26728 446.653 8.7081C446.822 9.1456 447.069 9.48864 447.393 9.73722C447.718 9.98248 448.116 10.1051 448.587 10.1051C449.077 10.1051 449.487 9.97585 449.815 9.71733C450.146 9.45549 450.395 9.10417 450.56 8.66335C450.729 8.21922 450.814 7.72538 450.814 7.18182C450.814 6.64489 450.731 6.16098 450.565 5.73011C450.403 5.29593 450.156 4.95289 449.825 4.70099C449.496 4.44579 449.084 4.31818 448.587 4.31818C448.109 4.31818 447.708 4.43916 447.384 4.68111C447.059 4.91974 446.813 5.2545 446.648 5.68537C446.482 6.11293 446.399 6.61174 446.399 7.18182ZM454.95 0.818182V11H453.777V0.818182H454.95ZM459.346 11.179C458.863 11.179 458.423 11.0878 458.029 10.9055C457.635 10.7199 457.321 10.4531 457.089 10.1051C456.857 9.75379 456.741 9.32955 456.741 8.83239C456.741 8.39489 456.827 8.04025 457 7.76847C457.172 7.49337 457.403 7.27794 457.691 7.12216C457.979 6.96638 458.297 6.85038 458.645 6.77415C458.997 6.6946 459.35 6.63163 459.704 6.58523C460.168 6.52557 460.545 6.48082 460.833 6.45099C461.125 6.41785 461.337 6.36316 461.469 6.28693C461.605 6.2107 461.673 6.07812 461.673 5.8892V5.84943C461.673 5.3589 461.539 4.97775 461.27 4.70597C461.005 4.43419 460.603 4.2983 460.062 4.2983C459.502 4.2983 459.063 4.42093 458.745 4.66619C458.427 4.91146 458.203 5.1733 458.074 5.4517L456.96 5.05398C457.159 4.58996 457.424 4.22869 457.756 3.97017C458.09 3.70833 458.455 3.52604 458.849 3.4233C459.247 3.31723 459.638 3.2642 460.023 3.2642C460.268 3.2642 460.55 3.29403 460.868 3.35369C461.189 3.41004 461.499 3.5277 461.797 3.70668C462.099 3.88565 462.349 4.15578 462.548 4.51705C462.747 4.87831 462.846 5.36222 462.846 5.96875V11H461.673V9.96591H461.613C461.534 10.1316 461.401 10.3089 461.216 10.4979C461.03 10.6868 460.783 10.8475 460.475 10.9801C460.167 11.1127 459.791 11.179 459.346 11.179ZM459.525 10.125C459.989 10.125 460.381 10.0339 460.699 9.85156C461.02 9.66927 461.262 9.43395 461.425 9.1456C461.59 8.85724 461.673 8.55398 461.673 8.2358V7.16193C461.623 7.22159 461.514 7.27628 461.345 7.32599C461.179 7.3724 460.987 7.41383 460.768 7.45028C460.553 7.48343 460.342 7.51326 460.137 7.53977C459.935 7.56297 459.771 7.58286 459.645 7.59943C459.34 7.6392 459.055 7.70384 458.79 7.79332C458.528 7.8795 458.316 8.01042 458.153 8.18608C457.994 8.35843 457.915 8.59375 457.915 8.89205C457.915 9.29972 458.065 9.60795 458.367 9.81676C458.672 10.0223 459.058 10.125 459.525 10.125ZM468.309 3.36364V4.35795H464.352V3.36364H468.309ZM465.505 1.53409H466.678V8.8125C466.678 9.14394 466.726 9.39252 466.822 9.55824C466.922 9.72064 467.048 9.83002 467.2 9.88636C467.356 9.93939 467.52 9.96591 467.692 9.96591C467.822 9.96591 467.928 9.95928 468.011 9.94602C468.094 9.92945 468.16 9.91619 468.21 9.90625L468.448 10.9602C468.369 10.9901 468.258 11.0199 468.115 11.0497C467.973 11.0829 467.792 11.0994 467.573 11.0994C467.242 11.0994 466.917 11.0282 466.599 10.8857C466.284 10.7431 466.022 10.526 465.813 10.2344C465.608 9.94271 465.505 9.57481 465.505 9.13068V1.53409ZM473.194 11.1591C472.458 11.1591 471.823 10.9967 471.289 10.6719C470.759 10.3438 470.35 9.88636 470.061 9.29972C469.776 8.70975 469.634 8.02367 469.634 7.24148C469.634 6.45928 469.776 5.76989 470.061 5.1733C470.35 4.57339 470.751 4.10606 471.265 3.77131C471.782 3.43324 472.385 3.2642 473.074 3.2642C473.472 3.2642 473.865 3.33049 474.252 3.46307C474.64 3.59564 474.993 3.81108 475.311 4.10938C475.63 4.40436 475.883 4.79545 476.072 5.28267C476.261 5.76989 476.355 6.36979 476.355 7.08239V7.57955H470.469V6.56534H475.162C475.162 6.13447 475.076 5.75 474.904 5.41193C474.735 5.07386 474.493 4.80705 474.178 4.61151C473.866 4.41596 473.498 4.31818 473.074 4.31818C472.607 4.31818 472.203 4.43419 471.861 4.66619C471.523 4.89489 471.263 5.19318 471.081 5.56108C470.898 5.92898 470.807 6.32339 470.807 6.74432V7.42045C470.807 7.99716 470.907 8.48603 471.105 8.88707C471.308 9.2848 471.588 9.58807 471.946 9.79688C472.304 10.0024 472.72 10.1051 473.194 10.1051C473.502 10.1051 473.78 10.062 474.029 9.97585C474.281 9.88636 474.498 9.75379 474.68 9.57812C474.862 9.39915 475.003 9.17708 475.103 8.91193L476.236 9.23011C476.117 9.61458 475.916 9.95265 475.635 10.2443C475.353 10.5327 475.005 10.758 474.591 10.9205C474.176 11.0795 473.711 11.1591 473.194 11.1591ZM483.549 5.07386L482.495 5.37216C482.429 5.1965 482.331 5.0258 482.202 4.86009C482.076 4.69105 481.904 4.55185 481.685 4.44247C481.466 4.3331 481.186 4.27841 480.845 4.27841C480.377 4.27841 479.988 4.38613 479.676 4.60156C479.368 4.81368 479.214 5.08381 479.214 5.41193C479.214 5.7036 479.32 5.93395 479.532 6.10298C479.744 6.27202 480.076 6.41288 480.527 6.52557L481.66 6.80398C482.343 6.9697 482.852 7.22325 483.186 7.56463C483.521 7.9027 483.689 8.33854 483.689 8.87216C483.689 9.30966 483.563 9.70076 483.311 10.0455C483.062 10.3902 482.714 10.6619 482.267 10.8608C481.819 11.0597 481.299 11.1591 480.706 11.1591C479.927 11.1591 479.282 10.9901 478.772 10.652C478.261 10.3139 477.938 9.82008 477.802 9.17045L478.916 8.89205C479.022 9.30303 479.222 9.61127 479.517 9.81676C479.816 10.0223 480.205 10.125 480.686 10.125C481.233 10.125 481.667 10.009 481.988 9.77699C482.313 9.54167 482.475 9.25994 482.475 8.93182C482.475 8.66667 482.383 8.4446 482.197 8.26562C482.011 8.08333 481.726 7.94744 481.342 7.85795L480.069 7.55966C479.37 7.39394 478.856 7.13707 478.528 6.78906C478.203 6.43774 478.041 5.99858 478.041 5.47159C478.041 5.04072 478.162 4.65956 478.404 4.32812C478.649 3.99669 478.982 3.73651 479.403 3.54758C479.827 3.35866 480.308 3.2642 480.845 3.2642C481.6 3.2642 482.194 3.42992 482.625 3.76136C483.059 4.0928 483.367 4.5303 483.549 5.07386ZM492.713 3.36364V4.35795H488.756V3.36364H492.713ZM489.909 1.53409H491.083V8.8125C491.083 9.14394 491.131 9.39252 491.227 9.55824C491.326 9.72064 491.452 9.83002 491.605 9.88636C491.76 9.93939 491.924 9.96591 492.097 9.96591C492.226 9.96591 492.332 9.95928 492.415 9.94602C492.498 9.92945 492.564 9.91619 492.614 9.90625L492.852 10.9602C492.773 10.9901 492.662 11.0199 492.519 11.0497C492.377 11.0829 492.196 11.0994 491.977 11.0994C491.646 11.0994 491.321 11.0282 491.003 10.8857C490.688 10.7431 490.426 10.526 490.218 10.2344C490.012 9.94271 489.909 9.57481 489.909 9.13068V1.53409ZM497.498 11.1591C496.809 11.1591 496.204 10.995 495.684 10.6669C495.167 10.3388 494.762 9.87973 494.471 9.28977C494.182 8.69981 494.038 8.01042 494.038 7.22159C494.038 6.42614 494.182 5.73177 494.471 5.13849C494.762 4.54522 495.167 4.08452 495.684 3.75639C496.204 3.42827 496.809 3.2642 497.498 3.2642C498.188 3.2642 498.791 3.42827 499.308 3.75639C499.828 4.08452 500.233 4.54522 500.521 5.13849C500.813 5.73177 500.959 6.42614 500.959 7.22159C500.959 8.01042 500.813 8.69981 500.521 9.28977C500.233 9.87973 499.828 10.3388 499.308 10.6669C498.791 10.995 498.188 11.1591 497.498 11.1591ZM497.498 10.1051C498.022 10.1051 498.453 9.97088 498.791 9.70241C499.129 9.43395 499.379 9.08097 499.542 8.64347C499.704 8.20597 499.785 7.73201 499.785 7.22159C499.785 6.71117 499.704 6.23556 499.542 5.79474C499.379 5.35393 499.129 4.99763 498.791 4.72585C498.453 4.45407 498.022 4.31818 497.498 4.31818C496.975 4.31818 496.544 4.45407 496.206 4.72585C495.868 4.99763 495.617 5.35393 495.455 5.79474C495.293 6.23556 495.211 6.71117 495.211 7.22159C495.211 7.73201 495.293 8.20597 495.455 8.64347C495.617 9.08097 495.868 9.43395 496.206 9.70241C496.544 9.97088 496.975 10.1051 497.498 10.1051ZM509.77 14.0227C509.203 14.0227 508.716 13.9498 508.308 13.804C507.9 13.6615 507.56 13.4725 507.289 13.2372C507.02 13.0052 506.806 12.7566 506.647 12.4915L507.582 11.8352C507.688 11.9744 507.822 12.1335 507.985 12.3125C508.147 12.4948 508.369 12.6522 508.651 12.7848C508.936 12.9207 509.309 12.9886 509.77 12.9886C510.386 12.9886 510.895 12.8395 511.296 12.5412C511.697 12.2429 511.897 11.7756 511.897 11.1392V9.58807H511.798C511.712 9.72727 511.589 9.89962 511.43 10.1051C511.274 10.3073 511.049 10.4879 510.754 10.647C510.462 10.8028 510.068 10.8807 509.571 10.8807C508.954 10.8807 508.401 10.7348 507.91 10.4432C507.423 10.1515 507.037 9.72727 506.752 9.17045C506.47 8.61364 506.329 7.9375 506.329 7.14205C506.329 6.35985 506.467 5.67874 506.742 5.09872C507.017 4.51539 507.4 4.06463 507.89 3.74645C508.381 3.42495 508.948 3.2642 509.591 3.2642C510.088 3.2642 510.482 3.34706 510.774 3.51278C511.069 3.67519 511.294 3.8608 511.45 4.0696C511.609 4.27509 511.732 4.44413 511.818 4.5767H511.937V3.36364H513.071V11.2188C513.071 11.875 512.922 12.4086 512.623 12.8196C512.328 13.2339 511.931 13.5372 511.43 13.7294C510.933 13.925 510.379 14.0227 509.77 14.0227ZM509.73 9.8267C510.2 9.8267 510.598 9.71899 510.923 9.50355C511.248 9.28812 511.495 8.97822 511.664 8.57386C511.833 8.16951 511.917 7.68561 511.917 7.12216C511.917 6.57197 511.834 6.08641 511.669 5.66548C511.503 5.24455 511.258 4.91477 510.933 4.67614C510.608 4.4375 510.207 4.31818 509.73 4.31818C509.233 4.31818 508.818 4.44413 508.487 4.69602C508.159 4.94792 507.912 5.28598 507.746 5.71023C507.584 6.13447 507.502 6.60511 507.502 7.12216C507.502 7.65246 507.585 8.12145 507.751 8.52912C507.92 8.93348 508.169 9.25166 508.497 9.48366C508.828 9.71236 509.239 9.8267 509.73 9.8267ZM518.42 11.1591C517.684 11.1591 517.05 10.9967 516.516 10.6719C515.986 10.3438 515.576 9.88636 515.288 9.29972C515.003 8.70975 514.86 8.02367 514.86 7.24148C514.86 6.45928 515.003 5.76989 515.288 5.1733C515.576 4.57339 515.977 4.10606 516.491 3.77131C517.008 3.43324 517.611 3.2642 518.301 3.2642C518.699 3.2642 519.091 3.33049 519.479 3.46307C519.867 3.59564 520.22 3.81108 520.538 4.10938C520.856 4.40436 521.11 4.79545 521.299 5.28267C521.488 5.76989 521.582 6.36979 521.582 7.08239V7.57955H515.696V6.56534H520.389C520.389 6.13447 520.303 5.75 520.13 5.41193C519.961 5.07386 519.719 4.80705 519.404 4.61151C519.093 4.41596 518.725 4.31818 518.301 4.31818C517.833 4.31818 517.429 4.43419 517.088 4.66619C516.75 4.89489 516.489 5.19318 516.307 5.56108C516.125 5.92898 516.034 6.32339 516.034 6.74432V7.42045C516.034 7.99716 516.133 8.48603 516.332 8.88707C516.534 9.2848 516.814 9.58807 517.172 9.79688C517.53 10.0024 517.946 10.1051 518.42 10.1051C518.728 10.1051 519.007 10.062 519.255 9.97585C519.507 9.88636 519.724 9.75379 519.907 9.57812C520.089 9.39915 520.23 9.17708 520.329 8.91193L521.463 9.23011C521.343 9.61458 521.143 9.95265 520.861 10.2443C520.579 10.5327 520.231 10.758 519.817 10.9205C519.403 11.0795 518.937 11.1591 518.42 11.1591ZM526.688 3.36364V4.35795H522.73V3.36364H526.688ZM523.884 1.53409H525.057V8.8125C525.057 9.14394 525.105 9.39252 525.201 9.55824C525.301 9.72064 525.427 9.83002 525.579 9.88636C525.735 9.93939 525.899 9.96591 526.071 9.96591C526.201 9.96591 526.307 9.95928 526.39 9.94602C526.472 9.92945 526.539 9.91619 526.588 9.90625L526.827 10.9602C526.748 10.9901 526.636 11.0199 526.494 11.0497C526.351 11.0829 526.171 11.0994 525.952 11.0994C525.621 11.0994 525.296 11.0282 524.978 10.8857C524.663 10.7431 524.401 10.526 524.192 10.2344C523.987 9.94271 523.884 9.57481 523.884 9.13068V1.53409ZM537.799 5.07386L536.745 5.37216C536.679 5.1965 536.581 5.0258 536.452 4.86009C536.326 4.69105 536.154 4.55185 535.935 4.44247C535.716 4.3331 535.436 4.27841 535.095 4.27841C534.627 4.27841 534.238 4.38613 533.926 4.60156C533.618 4.81368 533.464 5.08381 533.464 5.41193C533.464 5.7036 533.57 5.93395 533.782 6.10298C533.994 6.27202 534.326 6.41288 534.777 6.52557L535.91 6.80398C536.593 6.9697 537.102 7.22325 537.436 7.56463C537.771 7.9027 537.939 8.33854 537.939 8.87216C537.939 9.30966 537.813 9.70076 537.561 10.0455C537.312 10.3902 536.964 10.6619 536.517 10.8608C536.069 11.0597 535.549 11.1591 534.956 11.1591C534.177 11.1591 533.532 10.9901 533.022 10.652C532.511 10.3139 532.188 9.82008 532.052 9.17045L533.166 8.89205C533.272 9.30303 533.472 9.61127 533.767 9.81676C534.066 10.0223 534.455 10.125 534.936 10.125C535.483 10.125 535.917 10.009 536.238 9.77699C536.563 9.54167 536.725 9.25994 536.725 8.93182C536.725 8.66667 536.633 8.4446 536.447 8.26562C536.261 8.08333 535.976 7.94744 535.592 7.85795L534.319 7.55966C533.62 7.39394 533.106 7.13707 532.778 6.78906C532.453 6.43774 532.291 5.99858 532.291 5.47159C532.291 5.04072 532.412 4.65956 532.654 4.32812C532.899 3.99669 533.232 3.73651 533.653 3.54758C534.077 3.35866 534.558 3.2642 535.095 3.2642C535.85 3.2642 536.444 3.42992 536.875 3.76136C537.309 4.0928 537.617 4.5303 537.799 5.07386ZM543.026 3.36364V4.35795H539.068V3.36364H543.026ZM540.222 1.53409H541.395V8.8125C541.395 9.14394 541.443 9.39252 541.539 9.55824C541.639 9.72064 541.765 9.83002 541.917 9.88636C542.073 9.93939 542.237 9.96591 542.409 9.96591C542.539 9.96591 542.645 9.95928 542.727 9.94602C542.81 9.92945 542.877 9.91619 542.926 9.90625L543.165 10.9602C543.085 10.9901 542.974 11.0199 542.832 11.0497C542.689 11.0829 542.509 11.0994 542.29 11.0994C541.959 11.0994 541.634 11.0282 541.316 10.8857C541.001 10.7431 540.739 10.526 540.53 10.2344C540.325 9.94271 540.222 9.57481 540.222 9.13068V1.53409ZM547.038 11.179C546.554 11.179 546.115 11.0878 545.72 10.9055C545.326 10.7199 545.013 10.4531 544.781 10.1051C544.549 9.75379 544.433 9.32955 544.433 8.83239C544.433 8.39489 544.519 8.04025 544.691 7.76847C544.864 7.49337 545.094 7.27794 545.382 7.12216C545.671 6.96638 545.989 6.85038 546.337 6.77415C546.688 6.6946 547.041 6.63163 547.396 6.58523C547.86 6.52557 548.236 6.48082 548.524 6.45099C548.816 6.41785 549.028 6.36316 549.161 6.28693C549.297 6.2107 549.365 6.07812 549.365 5.8892V5.84943C549.365 5.3589 549.23 4.97775 548.962 4.70597C548.697 4.43419 548.294 4.2983 547.754 4.2983C547.194 4.2983 546.754 4.42093 546.436 4.66619C546.118 4.91146 545.894 5.1733 545.765 5.4517L544.651 5.05398C544.85 4.58996 545.115 4.22869 545.447 3.97017C545.782 3.70833 546.146 3.52604 546.541 3.4233C546.938 3.31723 547.329 3.2642 547.714 3.2642C547.959 3.2642 548.241 3.29403 548.559 3.35369C548.881 3.41004 549.191 3.5277 549.489 3.70668C549.79 3.88565 550.041 4.15578 550.24 4.51705C550.438 4.87831 550.538 5.36222 550.538 5.96875V11H549.365V9.96591H549.305C549.225 10.1316 549.093 10.3089 548.907 10.4979C548.722 10.6868 548.475 10.8475 548.166 10.9801C547.858 11.1127 547.482 11.179 547.038 11.179ZM547.217 10.125C547.681 10.125 548.072 10.0339 548.39 9.85156C548.712 9.66927 548.954 9.43395 549.116 9.1456C549.282 8.85724 549.365 8.55398 549.365 8.2358V7.16193C549.315 7.22159 549.205 7.27628 549.036 7.32599C548.871 7.3724 548.678 7.41383 548.46 7.45028C548.244 7.48343 548.034 7.51326 547.828 7.53977C547.626 7.56297 547.462 7.58286 547.336 7.59943C547.031 7.6392 546.746 7.70384 546.481 7.79332C546.219 7.8795 546.007 8.01042 545.845 8.18608C545.686 8.35843 545.606 8.59375 545.606 8.89205C545.606 9.29972 545.757 9.60795 546.058 9.81676C546.363 10.0223 546.749 10.125 547.217 10.125ZM552.679 11V3.36364H553.813V4.51705H553.892C554.032 4.1392 554.283 3.83262 554.648 3.5973C555.013 3.36198 555.424 3.24432 555.881 3.24432C555.967 3.24432 556.075 3.24597 556.204 3.24929C556.333 3.2526 556.431 3.25758 556.498 3.2642V4.45739C556.458 4.44744 556.367 4.43253 556.224 4.41264C556.085 4.38944 555.937 4.37784 555.782 4.37784C555.41 4.37784 555.079 4.45573 554.787 4.61151C554.499 4.76397 554.27 4.97609 554.101 5.24787C553.935 5.51634 553.853 5.82292 553.853 6.16761V11H552.679ZM561.688 3.36364V4.35795H557.73V3.36364H561.688ZM558.884 1.53409H560.057V8.8125C560.057 9.14394 560.105 9.39252 560.201 9.55824C560.301 9.72064 560.427 9.83002 560.579 9.88636C560.735 9.93939 560.899 9.96591 561.071 9.96591C561.201 9.96591 561.307 9.95928 561.39 9.94602C561.472 9.92945 561.539 9.91619 561.588 9.90625L561.827 10.9602C561.748 10.9901 561.636 11.0199 561.494 11.0497C561.351 11.0829 561.171 11.0994 560.952 11.0994C560.621 11.0994 560.296 11.0282 559.978 10.8857C559.663 10.7431 559.401 10.526 559.192 10.2344C558.987 9.94271 558.884 9.57481 558.884 9.13068V1.53409ZM566.572 11.1591C565.837 11.1591 565.202 10.9967 564.668 10.6719C564.138 10.3438 563.729 9.88636 563.44 9.29972C563.155 8.70975 563.013 8.02367 563.013 7.24148C563.013 6.45928 563.155 5.76989 563.44 5.1733C563.729 4.57339 564.13 4.10606 564.643 3.77131C565.161 3.43324 565.764 3.2642 566.453 3.2642C566.851 3.2642 567.244 3.33049 567.631 3.46307C568.019 3.59564 568.372 3.81108 568.69 4.10938C569.009 4.40436 569.262 4.79545 569.451 5.28267C569.64 5.76989 569.734 6.36979 569.734 7.08239V7.57955H563.848V6.56534H568.541C568.541 6.13447 568.455 5.75 568.283 5.41193C568.114 5.07386 567.872 4.80705 567.557 4.61151C567.245 4.41596 566.877 4.31818 566.453 4.31818C565.986 4.31818 565.581 4.43419 565.24 4.66619C564.902 4.89489 564.642 5.19318 564.46 5.56108C564.277 5.92898 564.186 6.32339 564.186 6.74432V7.42045C564.186 7.99716 564.286 8.48603 564.484 8.88707C564.687 9.2848 564.967 9.58807 565.325 9.79688C565.683 10.0024 566.098 10.1051 566.572 10.1051C566.881 10.1051 567.159 10.062 567.408 9.97585C567.66 9.88636 567.877 9.75379 568.059 9.57812C568.241 9.39915 568.382 9.17708 568.482 8.91193L569.615 9.23011C569.496 9.61458 569.295 9.95265 569.013 10.2443C568.732 10.5327 568.384 10.758 567.969 10.9205C567.555 11.0795 567.089 11.1591 566.572 11.1591ZM574.403 11.1591C573.766 11.1591 573.205 10.9983 572.717 10.6768C572.23 10.352 571.849 9.89465 571.574 9.30469C571.299 8.71141 571.161 8.01042 571.161 7.2017C571.161 6.39962 571.299 5.7036 571.574 5.11364C571.849 4.52367 572.232 4.06794 572.722 3.74645C573.213 3.42495 573.78 3.2642 574.423 3.2642C574.92 3.2642 575.313 3.34706 575.601 3.51278C575.893 3.67519 576.115 3.8608 576.267 4.0696C576.423 4.27509 576.544 4.44413 576.63 4.5767H576.729V0.818182H577.903V11H576.769V9.8267H576.63C576.544 9.96591 576.421 10.1416 576.262 10.3537C576.103 10.5625 575.876 10.7498 575.581 10.9155C575.286 11.0779 574.893 11.1591 574.403 11.1591ZM574.562 10.1051C575.032 10.1051 575.43 9.98248 575.755 9.73722C576.08 9.48864 576.327 9.1456 576.496 8.7081C576.665 8.26728 576.749 7.75852 576.749 7.18182C576.749 6.61174 576.666 6.11293 576.501 5.68537C576.335 5.2545 576.09 4.91974 575.765 4.68111C575.44 4.43916 575.039 4.31818 574.562 4.31818C574.065 4.31818 573.65 4.44579 573.319 4.70099C572.991 4.95289 572.744 5.29593 572.578 5.73011C572.416 6.16098 572.335 6.64489 572.335 7.18182C572.335 7.72538 572.417 8.21922 572.583 8.66335C572.752 9.10417 573.001 9.45549 573.329 9.71733C573.66 9.97585 574.071 10.1051 574.562 10.1051ZM581.07 11.0795C580.824 11.0795 580.614 10.9917 580.438 10.8161C580.263 10.6404 580.175 10.4299 580.175 10.1847C580.175 9.93939 580.263 9.72893 580.438 9.55327C580.614 9.3776 580.824 9.28977 581.07 9.28977C581.315 9.28977 581.525 9.3776 581.701 9.55327C581.877 9.72893 581.964 9.93939 581.964 10.1847C581.964 10.3471 581.923 10.4962 581.84 10.6321C581.761 10.768 581.653 10.8774 581.517 10.9602C581.384 11.0398 581.235 11.0795 581.07 11.0795Z" fill="white" fill-opacity="0.8" style="fill:white;fill-opacity:0.8;"/>
</svg>
